solid part1
   facet normal 1.000000e+000 1.387779e-016 0.000000e+000
      outer loop
         vertex 5.000000e+001 5.000000e+001 2.000000e+001
         vertex 5.000000e+001 0.000000e+000 2.000000e+001
         vertex 5.000000e+001 5.000000e+001 0.000000e+000
      endloop
   endfacet
   facet normal 1.000000e+000 1.387779e-016 0.000000e+000
      outer loop
         vertex 5.000000e+001 5.000000e+001 0.000000e+000
         vertex 5.000000e+001 0.000000e+000 2.000000e+001
         vertex 5.000000e+001 0.000000e+000 0.000000e+000
      endloop
   endfacet
   facet normal 0.000000e+000 1.000000e+000 0.000000e+000
      outer loop
         vertex 0.000000e+000 5.000000e+001 2.000000e+001
         vertex 5.000000e+001 5.000000e+001 2.000000e+001
         vertex 0.000000e+000 5.000000e+001 0.000000e+000
      endloop
   endfacet
   facet normal 0.000000e+000 1.000000e+000 0.000000e+000
      outer loop
         vertex 0.000000e+000 5.000000e+001 0.000000e+000
         vertex 5.000000e+001 5.000000e+001 2.000000e+001
         vertex 5.000000e+001 5.000000e+001 0.000000e+000
      endloop
   endfacet
   facet normal -1.000000e+000 -1.387779e-016 0.000000e+000
      outer loop
         vertex 0.000000e+000 0.000000e+000 2.000000e+001
         vertex 0.000000e+000 5.000000e+001 2.000000e+001
         vertex 0.000000e+000 0.000000e+000 0.000000e+000
      endloop
   endfacet
   facet normal -1.000000e+000 -1.387779e-016 0.000000e+000
      outer loop
         vertex 0.000000e+000 0.000000e+000 0.000000e+000
         vertex 0.000000e+000 5.000000e+001 2.000000e+001
         vertex 0.000000e+000 5.000000e+001 0.000000e+000
      endloop
   endfacet
   facet normal 0.000000e+000 -1.000000e+000 0.000000e+000
      outer loop
         vertex 5.000000e+001 0.000000e+000 2.000000e+001
         vertex 0.000000e+000 0.000000e+000 2.000000e+001
         vertex 5.000000e+001 0.000000e+000 0.000000e+000
      endloop
   endfacet
   facet normal 0.000000e+000 -1.000000e+000 0.000000e+000
      outer loop
         vertex 5.000000e+001 0.000000e+000 0.000000e+000
         vertex 0.000000e+000 0.000000e+000 2.000000e+001
         vertex 0.000000e+000 0.000000e+000 0.000000e+000
      endloop
   endfacet
   facet normal 0.000000e+000 0.000000e+000 1.000000e+000
      outer loop
         vertex 3.500000e+001 3.500000e+001 2.000000e+001
         vertex 5.000000e+001 5.000000e+001 2.000000e+001
         vertex 1.500000e+001 3.500000e+001 2.000000e+001
      endloop
   endfacet
   facet normal 0.000000e+000 0.000000e+000 1.000000e+000
      outer loop
         vertex 1.500000e+001 3.500000e+001 2.000000e+001
         vertex 5.000000e+001 5.000000e+001 2.000000e+001
         vertex 0.000000e+000 5.000000e+001 2.000000e+001
      endloop
   endfacet
   facet normal 0.000000e+000 0.000000e+000 1.000000e+000
      outer loop
         vertex 1.500000e+001 3.500000e+001 2.000000e+001
         vertex 0.000000e+000 5.000000e+001 2.000000e+001
         vertex 1.500000e+001 1.500000e+001 2.000000e+001
      endloop
   endfacet
   facet normal 0.000000e+000 0.000000e+000 1.000000e+000
      outer loop
         vertex 1.500000e+001 1.500000e+001 2.000000e+001
         vertex 0.000000e+000 5.000000e+001 2.000000e+001
         vertex 0.000000e+000 0.000000e+000 2.000000e+001
      endloop
   endfacet
   facet normal 0.000000e+000 0.000000e+000 1.000000e+000
      outer loop
         vertex 1.500000e+001 1.500000e+001 2.000000e+001
         vertex 0.000000e+000 0.000000e+000 2.000000e+001
         vertex 3.500000e+001 1.500000e+001 2.000000e+001
      endloop
   endfacet
   facet normal 0.000000e+000 0.000000e+000 1.000000e+000
      outer loop
         vertex 3.500000e+001 1.500000e+001 2.000000e+001
         vertex 0.000000e+000 0.000000e+000 2.000000e+001
         vertex 5.000000e+001 0.000000e+000 2.000000e+001
      endloop
   endfacet
   facet normal 0.000000e+000 0.000000e+000 1.000000e+000
      outer loop
         vertex 3.500000e+001 1.500000e+001 2.000000e+001
         vertex 5.000000e+001 0.000000e+000 2.000000e+001
         vertex 3.500000e+001 3.500000e+001 2.000000e+001
      endloop
   endfacet
   facet normal 0.000000e+000 0.000000e+000 1.000000e+000
      outer loop
         vertex 3.500000e+001 3.500000e+001 2.000000e+001
         vertex 5.000000e+001 0.000000e+000 2.000000e+001
         vertex 5.000000e+001 5.000000e+001 2.000000e+001
      endloop
   endfacet
   facet normal 0.000000e+000 0.000000e+000 -1.000000e+000
      outer loop
         vertex 0.000000e+000 0.000000e+000 0.000000e+000
         vertex 0.000000e+000 5.000000e+001 0.000000e+000
         vertex 5.000000e+001 0.000000e+000 0.000000e+000
      endloop
   endfacet
   facet normal 0.000000e+000 0.000000e+000 -1.000000e+000
      outer loop
         vertex 5.000000e+001 0.000000e+000 0.000000e+000
         vertex 0.000000e+000 5.000000e+001 0.000000e+000
         vertex 5.000000e+001 5.000000e+001 0.000000e+000
      endloop
   endfacet
   facet normal -1.000000e+000 0.000000e+000 0.000000e+000
      outer loop
         vertex 3.500000e+001 3.500000e+001 5.000000e+000
         vertex 3.500000e+001 1.500000e+001 5.000000e+000
         vertex 3.500000e+001 3.500000e+001 2.000000e+001
      endloop
   endfacet
   facet normal -1.000000e+000 0.000000e+000 0.000000e+000
      outer loop
         vertex 3.500000e+001 3.500000e+001 2.000000e+001
         vertex 3.500000e+001 1.500000e+001 5.000000e+000
         vertex 3.500000e+001 1.500000e+001 2.000000e+001
      endloop
   endfacet
   facet normal 0.000000e+000 1.000000e+000 0.000000e+000
      outer loop
         vertex 3.500000e+001 1.500000e+001 5.000000e+000
         vertex 1.500000e+001 1.500000e+001 5.000000e+000
         vertex 3.500000e+001 1.500000e+001 2.000000e+001
      endloop
   endfacet
   facet normal 0.000000e+000 1.000000e+000 0.000000e+000
      outer loop
         vertex 3.500000e+001 1.500000e+001 2.000000e+001
         vertex 1.500000e+001 1.500000e+001 5.000000e+000
         vertex 1.500000e+001 1.500000e+001 2.000000e+001
      endloop
   endfacet
   facet normal 1.000000e+000 8.673617e-017 0.000000e+000
      outer loop
         vertex 1.500000e+001 1.500000e+001 5.000000e+000
         vertex 1.500000e+001 3.500000e+001 5.000000e+000
         vertex 1.500000e+001 1.500000e+001 2.000000e+001
      endloop
   endfacet
   facet normal 1.000000e+000 8.673617e-017 0.000000e+000
      outer loop
         vertex 1.500000e+001 1.500000e+001 2.000000e+001
         vertex 1.500000e+001 3.500000e+001 5.000000e+000
         vertex 1.500000e+001 3.500000e+001 2.000000e+001
      endloop
   endfacet
   facet normal 0.000000e+000 -1.000000e+000 0.000000e+000
      outer loop
         vertex 1.500000e+001 3.500000e+001 5.000000e+000
         vertex 3.500000e+001 3.500000e+001 5.000000e+000
         vertex 1.500000e+001 3.500000e+001 2.000000e+001
      endloop
   endfacet
   facet normal 0.000000e+000 -1.000000e+000 0.000000e+000
      outer loop
         vertex 1.500000e+001 3.500000e+001 2.000000e+001
         vertex 3.500000e+001 3.500000e+001 5.000000e+000
         vertex 3.500000e+001 3.500000e+001 2.000000e+001
      endloop
   endfacet
   facet normal 0.000000e+000 0.000000e+000 1.000000e+000
      outer loop
         vertex 1.500000e+001 3.500000e+001 5.000000e+000
         vertex 1.500000e+001 1.500000e+001 5.000000e+000
         vertex 3.500000e+001 3.500000e+001 5.000000e+000
      endloop
   endfacet
   facet normal 0.000000e+000 0.000000e+000 1.000000e+000
      outer loop
         vertex 3.500000e+001 3.500000e+001 5.000000e+000
         vertex 1.500000e+001 1.500000e+001 5.000000e+000
         vertex 3.500000e+001 1.500000e+001 5.000000e+000
      endloop
   endfacet
endsolid