solid parallelepiped
   facet normal 0.000000e+000 1.000000e+000 0.000000e+000
      outer loop
         vertex 1.800000e+001 2.400000e+001 3.000000e+001
         vertex 5.800000e+001 2.400000e+001 3.000000e+001
         vertex 1.800000e+001 2.400000e+001 0.000000e+000
      endloop
   endfacet
   facet normal 0.000000e+000 1.000000e+000 0.000000e+000
      outer loop
         vertex 1.800000e+001 2.400000e+001 0.000000e+000
         vertex 5.800000e+001 2.400000e+001 3.000000e+001
         vertex 5.800000e+001 2.400000e+001 0.000000e+000
      endloop
   endfacet
   facet normal -8.000000e-001 6.000000e-001 0.000000e+000
      outer loop
         vertex 0.000000e+000 0.000000e+000 3.000000e+001
         vertex 1.800000e+001 2.400000e+001 3.000000e+001
         vertex 0.000000e+000 0.000000e+000 0.000000e+000
      endloop
   endfacet
   facet normal -8.000000e-001 6.000000e-001 0.000000e+000
      outer loop
         vertex 0.000000e+000 0.000000e+000 0.000000e+000
         vertex 1.800000e+001 2.400000e+001 3.000000e+001
         vertex 1.800000e+001 2.400000e+001 0.000000e+000
      endloop
   endfacet
   facet normal 0.000000e+000 -1.000000e+000 0.000000e+000
      outer loop
         vertex 4.000000e+001 0.000000e+000 3.000000e+001
         vertex 0.000000e+000 0.000000e+000 3.000000e+001
         vertex 4.000000e+001 0.000000e+000 0.000000e+000
      endloop
   endfacet
   facet normal 0.000000e+000 -1.000000e+000 0.000000e+000
      outer loop
         vertex 4.000000e+001 0.000000e+000 0.000000e+000
         vertex 0.000000e+000 0.000000e+000 3.000000e+001
         vertex 0.000000e+000 0.000000e+000 0.000000e+000
      endloop
   endfacet
   facet normal 8.000000e-001 -6.000000e-001 0.000000e+000
      outer loop
         vertex 5.800000e+001 2.400000e+001 3.000000e+001
         vertex 4.000000e+001 -3.469447e-015 3.000000e+001
         vertex 5.800000e+001 2.400000e+001 0.000000e+000
      endloop
   endfacet
   facet normal 8.000000e-001 -6.000000e-001 0.000000e+000
      outer loop
         vertex 5.800000e+001 2.400000e+001 0.000000e+000
         vertex 4.000000e+001 -3.469447e-015 3.000000e+001
         vertex 4.000000e+001 -3.469447e-015 0.000000e+000
      endloop
   endfacet
   facet normal 0.000000e+000 0.000000e+000 1.000000e+000
      outer loop
         vertex 0.000000e+000 0.000000e+000 3.000000e+001
         vertex 4.000000e+001 0.000000e+000 3.000000e+001
         vertex 1.800000e+001 2.400000e+001 3.000000e+001
      endloop
   endfacet
   facet normal 0.000000e+000 0.000000e+000 1.000000e+000
      outer loop
         vertex 1.800000e+001 2.400000e+001 3.000000e+001
         vertex 4.000000e+001 0.000000e+000 3.000000e+001
         vertex 5.800000e+001 2.400000e+001 3.000000e+001
      endloop
   endfacet
   facet normal 0.000000e+000 0.000000e+000 -1.000000e+000
      outer loop
         vertex 4.000000e+001 0.000000e+000 0.000000e+000
         vertex 0.000000e+000 0.000000e+000 0.000000e+000
         vertex 5.800000e+001 2.400000e+001 0.000000e+000
      endloop
   endfacet
   facet normal 0.000000e+000 0.000000e+000 -1.000000e+000
      outer loop
         vertex 5.800000e+001 2.400000e+001 0.000000e+000
         vertex 0.000000e+000 0.000000e+000 0.000000e+000
         vertex 1.800000e+001 2.400000e+001 0.000000e+000
      endloop
   endfacet
endsolid