solid slanted cub
   facet normal 5.000000e-001 5.000000e-001 -7.071068e-001
      outer loop
         vertex 1.353553e+001 1.353553e+001 1.000000e+001
         vertex 1.500000e+001 5.000000e+000 5.000000e+000
         vertex 5.000000e+000 1.500000e+001 5.000000e+000
      endloop
   endfacet
   facet normal 5.000000e-001 5.000000e-001 -7.071068e-001
      outer loop
         vertex 5.000000e+000 1.500000e+001 5.000000e+000
         vertex 1.500000e+001 5.000000e+000 5.000000e+000
         vertex 6.464466e+000 6.464466e+000 0.000000e+000
      endloop
   endfacet
   facet normal 8.535535e-001 -1.464466e-001 5.000000e-001
      outer loop
         vertex 8.535534e+000 8.535534e+000 1.707107e+001
         vertex 1.000000e+001 0.000000e+000 1.207107e+001
         vertex 1.353553e+001 1.353553e+001 1.000000e+001
      endloop
   endfacet
   facet normal 8.535535e-001 -1.464466e-001 5.000000e-001
      outer loop
         vertex 1.353553e+001 1.353553e+001 1.000000e+001
         vertex 1.000000e+001 0.000000e+000 1.207107e+001
         vertex 1.500000e+001 5.000000e+000 5.000000e+000
      endloop
   endfacet
   facet normal -5.000000e-001 -5.000000e-001 7.071068e-001
      outer loop
         vertex 0.000000e+000 1.000000e+001 1.207107e+001
         vertex 1.464466e+000 1.464466e+000 7.071068e+000
         vertex 8.535534e+000 8.535534e+000 1.707107e+001
      endloop
   endfacet
   facet normal -5.000000e-001 -5.000000e-001 7.071068e-001
      outer loop
         vertex 8.535534e+000 8.535534e+000 1.707107e+001
         vertex 1.464466e+000 1.464466e+000 7.071068e+000
         vertex 1.000000e+001 0.000000e+000 1.207107e+001
      endloop
   endfacet
   facet normal -8.535535e-001 1.464466e-001 -5.000000e-001
      outer loop
         vertex 5.000000e+000 1.500000e+001 5.000000e+000
         vertex 6.464466e+000 6.464466e+000 0.000000e+000
         vertex 0.000000e+000 1.000000e+001 1.207107e+001
      endloop
   endfacet
   facet normal -8.535535e-001 1.464466e-001 -5.000000e-001
      outer loop
         vertex 0.000000e+000 1.000000e+001 1.207107e+001
         vertex 6.464466e+000 6.464466e+000 0.000000e+000
         vertex 1.464466e+000 1.464466e+000 7.071068e+000
      endloop
   endfacet
   facet normal 1.464466e-001 -8.535535e-001 -5.000000e-001
      outer loop
         vertex 1.000000e+001 0.000000e+000 1.207107e+001
         vertex 1.464466e+000 1.464466e+000 7.071068e+000
         vertex 1.500000e+001 5.000000e+000 5.000000e+000
      endloop
   endfacet
   facet normal 1.464466e-001 -8.535535e-001 -5.000000e-001
      outer loop
         vertex 1.500000e+001 5.000000e+000 5.000000e+000
         vertex 1.464466e+000 1.464466e+000 7.071068e+000
         vertex 6.464466e+000 6.464466e+000 0.000000e+000
      endloop
   endfacet
   facet normal -1.464466e-001 8.535535e-001 5.000000e-001
      outer loop
         vertex 0.000000e+000 1.000000e+001 1.207107e+001
         vertex 8.535534e+000 8.535534e+000 1.707107e+001
         vertex 5.000000e+000 1.500000e+001 5.000000e+000
      endloop
   endfacet
   facet normal -1.464466e-001 8.535535e-001 5.000000e-001
      outer loop
         vertex 5.000000e+000 1.500000e+001 5.000000e+000
         vertex 8.535534e+000 8.535534e+000 1.707107e+001
         vertex 1.353553e+001 1.353553e+001 1.000000e+001
      endloop
   endfacet
endsolid