solid testcub
   facet normal 0.000000e+000 1.000000e+000 0.000000e+000
      outer loop
         vertex 8.440000e+001 2.000000e+001 0.000000e+000
         vertex 0.000000e+000 2.000000e+001 0.000000e+000
         vertex 1.000000e+001 2.000000e+001 1.500000e+001
      endloop
   endfacet
   facet normal 0.000000e+000 1.000000e+000 0.000000e+000
      outer loop
         vertex 1.000000e+001 2.000000e+001 1.500000e+001
         vertex 0.000000e+000 2.000000e+001 0.000000e+000
         vertex 0.000000e+000 2.000000e+001 1.500000e+001
      endloop
   endfacet
   facet normal 0.000000e+000 1.000000e+000 0.000000e+000
      outer loop
         vertex 1.000000e+002 2.000000e+001 5.000000e+001
         vertex 7.500000e+001 2.000000e+001 3.750000e+001
         vertex 0.000000e+000 2.000000e+001 5.000000e+001
      endloop
   endfacet
   facet normal 0.000000e+000 1.000000e+000 0.000000e+000
      outer loop
         vertex 0.000000e+000 2.000000e+001 5.000000e+001
         vertex 7.500000e+001 2.000000e+001 3.750000e+001
         vertex 2.500000e+001 2.000000e+001 3.750000e+001
      endloop
   endfacet
   facet normal 0.000000e+000 1.000000e+000 0.000000e+000
      outer loop
         vertex 1.000000e+002 2.000000e+001 5.000000e+001
         vertex 1.000000e+002 2.000000e+001 2.270000e+001
         vertex 7.500000e+001 2.000000e+001 3.750000e+001
      endloop
   endfacet
   facet normal 0.000000e+000 1.000000e+000 0.000000e+000
      outer loop
         vertex 7.500000e+001 2.000000e+001 3.750000e+001
         vertex 1.000000e+002 2.000000e+001 2.270000e+001
         vertex 8.440000e+001 2.000000e+001 2.270000e+001
      endloop
   endfacet
   facet normal 0.000000e+000 1.000000e+000 0.000000e+000
      outer loop
         vertex 7.500000e+001 2.000000e+001 3.750000e+001
         vertex 8.440000e+001 2.000000e+001 2.270000e+001
         vertex 7.500000e+001 2.000000e+001 1.250000e+001
      endloop
   endfacet
   facet normal 0.000000e+000 1.000000e+000 0.000000e+000
      outer loop
         vertex 7.500000e+001 2.000000e+001 1.250000e+001
         vertex 8.440000e+001 2.000000e+001 2.270000e+001
         vertex 8.440000e+001 2.000000e+001 0.000000e+000
      endloop
   endfacet
   facet normal 0.000000e+000 1.000000e+000 0.000000e+000
      outer loop
         vertex 7.500000e+001 2.000000e+001 1.250000e+001
         vertex 8.440000e+001 2.000000e+001 0.000000e+000
         vertex 2.500000e+001 2.000000e+001 1.250000e+001
      endloop
   endfacet
   facet normal 0.000000e+000 1.000000e+000 0.000000e+000
      outer loop
         vertex 2.500000e+001 2.000000e+001 1.250000e+001
         vertex 8.440000e+001 2.000000e+001 0.000000e+000
         vertex 1.000000e+001 2.000000e+001 1.500000e+001
      endloop
   endfacet
   facet normal 0.000000e+000 1.000000e+000 0.000000e+000
      outer loop
         vertex 2.500000e+001 2.000000e+001 1.250000e+001
         vertex 1.000000e+001 2.000000e+001 1.500000e+001
         vertex 2.500000e+001 2.000000e+001 3.750000e+001
      endloop
   endfacet
   facet normal 0.000000e+000 1.000000e+000 0.000000e+000
      outer loop
         vertex 2.500000e+001 2.000000e+001 3.750000e+001
         vertex 1.000000e+001 2.000000e+001 1.500000e+001
         vertex 1.000000e+001 2.000000e+001 3.500000e+001
      endloop
   endfacet
   facet normal 0.000000e+000 1.000000e+000 0.000000e+000
      outer loop
         vertex 2.500000e+001 2.000000e+001 3.750000e+001
         vertex 1.000000e+001 2.000000e+001 3.500000e+001
         vertex 0.000000e+000 2.000000e+001 5.000000e+001
      endloop
   endfacet
   facet normal 0.000000e+000 1.000000e+000 0.000000e+000
      outer loop
         vertex 0.000000e+000 2.000000e+001 5.000000e+001
         vertex 1.000000e+001 2.000000e+001 3.500000e+001
         vertex 0.000000e+000 2.000000e+001 3.500000e+001
      endloop
   endfacet
   facet normal -1.000000e+000 0.000000e+000 0.000000e+000
      outer loop
         vertex 0.000000e+000 2.000000e+001 1.500000e+001
         vertex 0.000000e+000 2.000000e+001 0.000000e+000
         vertex 0.000000e+000 5.000000e+000 1.500000e+001
      endloop
   endfacet
   facet normal -1.000000e+000 0.000000e+000 0.000000e+000
      outer loop
         vertex 0.000000e+000 5.000000e+000 1.500000e+001
         vertex 0.000000e+000 2.000000e+001 0.000000e+000
         vertex 0.000000e+000 0.000000e+000 0.000000e+000
      endloop
   endfacet
   facet normal -1.000000e+000 0.000000e+000 0.000000e+000
      outer loop
         vertex 0.000000e+000 5.000000e+000 1.500000e+001
         vertex 0.000000e+000 0.000000e+000 0.000000e+000
         vertex 0.000000e+000 5.000000e+000 3.500000e+001
      endloop
   endfacet
   facet normal -1.000000e+000 0.000000e+000 0.000000e+000
      outer loop
         vertex 0.000000e+000 5.000000e+000 3.500000e+001
         vertex 0.000000e+000 0.000000e+000 0.000000e+000
         vertex 0.000000e+000 0.000000e+000 5.000000e+001
      endloop
   endfacet
   facet normal -1.000000e+000 0.000000e+000 0.000000e+000
      outer loop
         vertex 0.000000e+000 5.000000e+000 3.500000e+001
         vertex 0.000000e+000 0.000000e+000 5.000000e+001
         vertex 0.000000e+000 2.000000e+001 3.500000e+001
      endloop
   endfacet
   facet normal -1.000000e+000 0.000000e+000 0.000000e+000
      outer loop
         vertex 0.000000e+000 2.000000e+001 3.500000e+001
         vertex 0.000000e+000 0.000000e+000 5.000000e+001
         vertex 0.000000e+000 2.000000e+001 5.000000e+001
      endloop
   endfacet
   facet normal 1.000000e+000 0.000000e+000 -2.775558e-016
      outer loop
         vertex 7.500000e+001 4.000000e+001 1.250000e+001
         vertex 7.500000e+001 4.000000e+001 3.750000e+001
         vertex 7.500000e+001 2.000000e+001 1.250000e+001
      endloop
   endfacet
   facet normal 1.000000e+000 0.000000e+000 -2.775558e-016
      outer loop
         vertex 7.500000e+001 2.000000e+001 1.250000e+001
         vertex 7.500000e+001 4.000000e+001 3.750000e+001
         vertex 7.500000e+001 2.000000e+001 3.750000e+001
      endloop
   endfacet
   facet normal 0.000000e+000 0.000000e+000 -1.000000e+000
      outer loop
         vertex 2.500000e+001 4.000000e+001 1.250000e+001
         vertex 7.500000e+001 4.000000e+001 1.250000e+001
         vertex 2.500000e+001 2.000000e+001 1.250000e+001
      endloop
   endfacet
   facet normal 0.000000e+000 0.000000e+000 -1.000000e+000
      outer loop
         vertex 2.500000e+001 2.000000e+001 1.250000e+001
         vertex 7.500000e+001 4.000000e+001 1.250000e+001
         vertex 7.500000e+001 2.000000e+001 1.250000e+001
      endloop
   endfacet
   facet normal -1.000000e+000 0.000000e+000 2.775558e-016
      outer loop
         vertex 2.500000e+001 4.000000e+001 3.750000e+001
         vertex 2.500000e+001 4.000000e+001 1.250000e+001
         vertex 2.500000e+001 2.000000e+001 3.750000e+001
      endloop
   endfacet
   facet normal -1.000000e+000 0.000000e+000 2.775558e-016
      outer loop
         vertex 2.500000e+001 2.000000e+001 3.750000e+001
         vertex 2.500000e+001 4.000000e+001 1.250000e+001
         vertex 2.500000e+001 2.000000e+001 1.250000e+001
      endloop
   endfacet
   facet normal 0.000000e+000 0.000000e+000 1.000000e+000
      outer loop
         vertex 7.500000e+001 4.000000e+001 3.750000e+001
         vertex 2.500000e+001 4.000000e+001 3.750000e+001
         vertex 7.500000e+001 2.000000e+001 3.750000e+001
      endloop
   endfacet
   facet normal 0.000000e+000 0.000000e+000 1.000000e+000
      outer loop
         vertex 7.500000e+001 2.000000e+001 3.750000e+001
         vertex 2.500000e+001 4.000000e+001 3.750000e+001
         vertex 2.500000e+001 2.000000e+001 3.750000e+001
      endloop
   endfacet
   facet normal 0.000000e+000 1.000000e+000 0.000000e+000
      outer loop
         vertex 2.500000e+001 4.000000e+001 1.250000e+001
         vertex 2.500000e+001 4.000000e+001 3.750000e+001
         vertex 7.500000e+001 4.000000e+001 1.250000e+001
      endloop
   endfacet
   facet normal 0.000000e+000 1.000000e+000 0.000000e+000
      outer loop
         vertex 7.500000e+001 4.000000e+001 1.250000e+001
         vertex 2.500000e+001 4.000000e+001 3.750000e+001
         vertex 7.500000e+001 4.000000e+001 3.750000e+001
      endloop
   endfacet
   facet normal 1.000000e+000 0.000000e+000 0.000000e+000
      outer loop
         vertex 1.000000e+002 0.000000e+000 0.000000e+000
         vertex 1.000000e+002 6.600000e+000 0.000000e+000
         vertex 1.000000e+002 6.600000e+000 2.270000e+001
      endloop
   endfacet
   facet normal 1.000000e+000 0.000000e+000 0.000000e+000
      outer loop
         vertex 1.000000e+002 2.000000e+001 2.270000e+001
         vertex 1.000000e+002 2.000000e+001 5.000000e+001
         vertex 1.000000e+002 6.600000e+000 2.270000e+001
      endloop
   endfacet
   facet normal 1.000000e+000 0.000000e+000 0.000000e+000
      outer loop
         vertex 1.000000e+002 6.600000e+000 2.270000e+001
         vertex 1.000000e+002 2.000000e+001 5.000000e+001
         vertex 1.000000e+002 0.000000e+000 5.000000e+001
      endloop
   endfacet
   facet normal 1.000000e+000 0.000000e+000 0.000000e+000
      outer loop
         vertex 1.000000e+002 6.600000e+000 2.270000e+001
         vertex 1.000000e+002 0.000000e+000 5.000000e+001
         vertex 1.000000e+002 0.000000e+000 0.000000e+000
      endloop
   endfacet
   facet normal 0.000000e+000 0.000000e+000 1.000000e+000
      outer loop
         vertex 0.000000e+000 0.000000e+000 5.000000e+001
         vertex 1.000000e+002 0.000000e+000 5.000000e+001
         vertex 0.000000e+000 2.000000e+001 5.000000e+001
      endloop
   endfacet
   facet normal 0.000000e+000 0.000000e+000 1.000000e+000
      outer loop
         vertex 0.000000e+000 2.000000e+001 5.000000e+001
         vertex 1.000000e+002 0.000000e+000 5.000000e+001
         vertex 1.000000e+002 2.000000e+001 5.000000e+001
      endloop
   endfacet
   facet normal 0.000000e+000 0.000000e+000 -1.000000e+000
      outer loop
         vertex 1.000000e+002 6.600000e+000 0.000000e+000
         vertex 1.000000e+002 0.000000e+000 0.000000e+000
         vertex 8.440000e+001 6.600000e+000 0.000000e+000
      endloop
   endfacet
   facet normal 0.000000e+000 0.000000e+000 -1.000000e+000
      outer loop
         vertex 8.440000e+001 6.600000e+000 0.000000e+000
         vertex 1.000000e+002 0.000000e+000 0.000000e+000
         vertex 0.000000e+000 0.000000e+000 0.000000e+000
      endloop
   endfacet
   facet normal 0.000000e+000 0.000000e+000 -1.000000e+000
      outer loop
         vertex 8.440000e+001 6.600000e+000 0.000000e+000
         vertex 0.000000e+000 0.000000e+000 0.000000e+000
         vertex 8.440000e+001 2.000000e+001 0.000000e+000
      endloop
   endfacet
   facet normal 0.000000e+000 0.000000e+000 -1.000000e+000
      outer loop
         vertex 8.440000e+001 2.000000e+001 0.000000e+000
         vertex 0.000000e+000 0.000000e+000 0.000000e+000
         vertex 0.000000e+000 2.000000e+001 0.000000e+000
      endloop
   endfacet
   facet normal 0.000000e+000 -1.000000e+000 0.000000e+000
      outer loop
         vertex 0.000000e+000 0.000000e+000 5.000000e+001
         vertex 0.000000e+000 0.000000e+000 0.000000e+000
         vertex 1.000000e+002 0.000000e+000 5.000000e+001
      endloop
   endfacet
   facet normal 0.000000e+000 -1.000000e+000 0.000000e+000
      outer loop
         vertex 1.000000e+002 0.000000e+000 5.000000e+001
         vertex 0.000000e+000 0.000000e+000 0.000000e+000
         vertex 1.000000e+002 0.000000e+000 0.000000e+000
      endloop
   endfacet
   facet normal -1.000000e+000 0.000000e+000 0.000000e+000
      outer loop
         vertex 1.000000e+001 5.000000e+000 1.500000e+001
         vertex 1.000000e+001 5.000000e+000 3.500000e+001
         vertex 1.000000e+001 2.000000e+001 1.500000e+001
      endloop
   endfacet
   facet normal -1.000000e+000 0.000000e+000 0.000000e+000
      outer loop
         vertex 1.000000e+001 2.000000e+001 1.500000e+001
         vertex 1.000000e+001 5.000000e+000 3.500000e+001
         vertex 1.000000e+001 2.000000e+001 3.500000e+001
      endloop
   endfacet
   facet normal -1.734723e-016 0.000000e+000 -1.000000e+000
      outer loop
         vertex 1.000000e+001 5.000000e+000 3.500000e+001
         vertex 0.000000e+000 5.000000e+000 3.500000e+001
         vertex 1.000000e+001 2.000000e+001 3.500000e+001
      endloop
   endfacet
   facet normal -1.734723e-016 0.000000e+000 -1.000000e+000
      outer loop
         vertex 1.000000e+001 2.000000e+001 3.500000e+001
         vertex 0.000000e+000 5.000000e+000 3.500000e+001
         vertex 0.000000e+000 2.000000e+001 3.500000e+001
      endloop
   endfacet
   facet normal 0.000000e+000 0.000000e+000 1.000000e+000
      outer loop
         vertex 0.000000e+000 5.000000e+000 1.500000e+001
         vertex 1.000000e+001 5.000000e+000 1.500000e+001
         vertex 0.000000e+000 2.000000e+001 1.500000e+001
      endloop
   endfacet
   facet normal 0.000000e+000 0.000000e+000 1.000000e+000
      outer loop
         vertex 0.000000e+000 2.000000e+001 1.500000e+001
         vertex 1.000000e+001 5.000000e+000 1.500000e+001
         vertex 1.000000e+001 2.000000e+001 1.500000e+001
      endloop
   endfacet
   facet normal 0.000000e+000 1.000000e+000 0.000000e+000
      outer loop
         vertex 0.000000e+000 5.000000e+000 1.500000e+001
         vertex 0.000000e+000 5.000000e+000 3.500000e+001
         vertex 1.000000e+001 5.000000e+000 1.500000e+001
      endloop
   endfacet
   facet normal 0.000000e+000 1.000000e+000 0.000000e+000
      outer loop
         vertex 1.000000e+001 5.000000e+000 1.500000e+001
         vertex 0.000000e+000 5.000000e+000 3.500000e+001
         vertex 1.000000e+001 5.000000e+000 3.500000e+001
      endloop
   endfacet
   facet normal 0.000000e+000 0.000000e+000 -1.000000e+000
      outer loop
         vertex 1.000000e+002 6.600000e+000 2.270000e+001
         vertex 8.440000e+001 6.600000e+000 2.270000e+001
         vertex 1.000000e+002 2.000000e+001 2.270000e+001
      endloop
   endfacet
   facet normal 0.000000e+000 0.000000e+000 -1.000000e+000
      outer loop
         vertex 1.000000e+002 2.000000e+001 2.270000e+001
         vertex 8.440000e+001 6.600000e+000 2.270000e+001
         vertex 8.440000e+001 2.000000e+001 2.270000e+001
      endloop
   endfacet
   facet normal 1.000000e+000 0.000000e+000 0.000000e+000
      outer loop
         vertex 8.440000e+001 6.600000e+000 2.270000e+001
         vertex 8.440000e+001 6.600000e+000 0.000000e+000
         vertex 8.440000e+001 2.000000e+001 2.270000e+001
      endloop
   endfacet
   facet normal 1.000000e+000 0.000000e+000 0.000000e+000
      outer loop
         vertex 8.440000e+001 2.000000e+001 2.270000e+001
         vertex 8.440000e+001 6.600000e+000 0.000000e+000
         vertex 8.440000e+001 2.000000e+001 0.000000e+000
      endloop
   endfacet
   facet normal 0.000000e+000 1.000000e+000 0.000000e+000
      outer loop
         vertex 8.440000e+001 6.600000e+000 0.000000e+000
         vertex 8.440000e+001 6.600000e+000 2.270000e+001
         vertex 1.000000e+002 6.600000e+000 0.000000e+000
      endloop
   endfacet
   facet normal 0.000000e+000 1.000000e+000 0.000000e+000
      outer loop
         vertex 1.000000e+002 6.600000e+000 0.000000e+000
         vertex 8.440000e+001 6.600000e+000 2.270000e+001
         vertex 1.000000e+002 6.600000e+000 2.270000e+001
      endloop
   endfacet
endsolid